Coordinates
version=1
nRows=16
nColumns=40
inDegrees=yes

Units are S.I. units (second, meters, Newtons, ...)
If the header above contains a line with 'inDegrees', this indicates whether rotational values are in degrees (yes) or radians (no).

endheader
time	pelvis_tilt	pelvis_list	pelvis_rotation	pelvis_tx	pelvis_ty	pelvis_tz	hip_flexion_r	hip_adduction_r	hip_rotation_r	knee_angle_r	knee_angle_r_beta	ankle_angle_r	subtalar_angle_r	mtp_angle_r	hip_flexion_l	hip_adduction_l	hip_rotation_l	knee_angle_l	knee_angle_l_beta	ankle_angle_l	subtalar_angle_l	mtp_angle_l	lumbar_extension	lumbar_bending	lumbar_rotation	arm_flex_r	arm_add_r	arm_rot_r	elbow_flex_r	pro_sup_r	wrist_flex_r	wrist_dev_r	arm_flex_l	arm_add_l	arm_rot_l	elbow_flex_l	pro_sup_l	wrist_flex_l	wrist_dev_l
      7.25000000	     11.69736556	     -4.19810634	     -8.26661130	     -0.22339232	      0.88967942	     -1.02489816	     57.93727208	      4.28322207	     -4.09721387	     24.10690009	      0.42074478	     -9.04685307	      0.00000000	      0.00000000	     22.37109246	     -4.50188040	    -12.13222709	     79.63963210	      1.38997380	     36.25883327	      0.00000000	      0.00000000	    -20.07438970	     -1.65086171	      5.47556111	     89.92190647	     -6.25162599	     32.75315343	     33.65761869	     85.38685811	      0.00000000	      0.00000000	     89.92815405	    -12.14868163	     40.13086421	     33.39851382	     84.35430598	      0.00000000	      0.00000000
      7.25500000	     11.63125626	     -4.17001958	     -8.30724810	     -0.22329059	      0.89069991	     -1.02467906	     57.91541132	      4.31826505	     -4.06371793	     24.11529028	      0.42089122	     -9.14955531	      0.00000000	      0.00000000	     22.29203449	     -4.53824503	    -12.24214001	     79.34656016	      1.38485872	     36.05479351	      0.00000000	      0.00000000	    -20.02595505	     -1.70426409	      5.46293979	     89.92187507	     -6.19494795	     32.73907246	     33.67315581	     85.38207972	      0.00000000	      0.00000000	     89.92771140	    -12.17026458	     40.10000061	     33.37026574	     84.36614869	      0.00000000	      0.00000000
      7.26000000	     11.56641936	     -4.18518556	     -8.28593513	     -0.22335599	      0.89154060	     -1.02458659	     57.87707968	      4.33075371	     -4.05206185	     24.11877996	      0.42095212	     -9.17415983	      0.00000000	      0.00000000	     22.34085362	     -4.57564932	    -12.22747285	     79.25779195	      1.38330943	     36.01344953	      0.00000000	      0.00000000	    -19.99924538	     -1.70692713	      5.44262332	     89.92215246	     -6.19548587	     32.71133840	     33.70184575	     85.37726627	      0.00000000	      0.00000000	     89.92806472	    -12.15983242	     40.08401361	     33.38911938	     84.36710181	      0.00000000	      0.00000000
      7.26500000	     11.44840036	     -4.21784307	     -8.20143740	     -0.22342029	      0.89250443	     -1.02462128	     57.86862265	      4.30587625	     -4.04022928	     24.06544555	      0.42002126	     -9.28327126	      0.00000000	      0.00000000	     22.37417527	     -4.62611307	    -12.18729043	     79.02548743	      1.37925495	     35.86203372	      0.00000000	      0.00000000	    -19.92500119	     -1.64978880	      5.38073890	     89.92190162	     -6.20091558	     32.69022329	     33.70876974	     85.37362148	      0.00000000	      0.00000000	     89.92807822	    -12.13911223	     40.06358168	     33.40796372	     84.37555344	      0.00000000	      0.00000000
      7.27000000	     11.40044768	     -4.20142491	     -8.21831229	     -0.22332229	      0.89344549	     -1.02442394	     57.82641630	      4.32814394	     -4.04571229	     24.06074333	      0.41993919	     -9.29701127	      0.00000000	      0.00000000	     22.38351078	     -4.63509712	    -12.18649246	     78.97066304	      1.37829808	     35.83417079	      0.00000000	      0.00000000	    -19.89724029	     -1.68452608	      5.37732188	     89.92186586	     -6.18692809	     32.66942098	     33.74207578	     85.37088829	      0.00000000	      0.00000000	     89.92821085	    -12.13864518	     40.04730993	     33.42135821	     84.37422525	      0.00000000	      0.00000000
      7.27500000	     11.30839695	     -4.20519963	     -8.18998445	     -0.22339993	      0.89454089	     -1.02433961	     57.76002608	      4.32584440	     -4.01216310	     23.99189803	      0.41873761	     -9.48685408	      0.00000000	      0.00000000	     22.34208421	     -4.66045569	    -12.20261287	     78.60937502	      1.37199242	     35.58328713	      0.00000000	      0.00000000	    -19.84969234	     -1.69609254	      5.31677077	     89.92172536	     -6.15557534	     32.65666174	     33.74489495	     85.36784669	      0.00000000	      0.00000000	     89.92823664	    -12.14997599	     40.01177423	     33.42815410	     84.37736835	      0.00000000	      0.00000000
      7.28000000	     11.25303039	     -4.22073357	     -8.16475903	     -0.22336285	      0.89549766	     -1.02411746	     57.70724203	      4.34600767	     -4.00943073	     23.97994613	      0.41852901	     -9.53314560	      0.00000000	      0.00000000	     22.33843784	     -4.70661281	    -12.19908437	     78.51314348	      1.37031286	     35.52862953	      0.00000000	      0.00000000	    -19.82737132	     -1.70607374	      5.29453763	     89.92197744	     -6.14753223	     32.63322257	     33.77215192	     85.36496719	      0.00000000	      0.00000000	     89.92849818	    -12.14747297	     39.99879642	     33.43985257	     84.37853408	      0.00000000	      0.00000000
      7.28500000	     11.25857914	     -4.21241355	     -8.15540548	     -0.22342587	      0.89684861	     -1.02399341	     57.50429684	      4.34660059	     -3.96874629	     23.82225553	      0.41577679	    -10.01713117	      0.00000000	      0.00000000	     22.18273698	     -4.71119390	    -12.24698531	     78.15378100	      1.36404080	     35.17744455	      0.00000000	      0.00000000	    -19.87051645	     -1.73436671	      5.29666022	     89.92214659	     -6.12905931	     32.59433930	     33.72950222	     85.35802132	      0.00000000	      0.00000000	     89.92855452	    -12.12556138	     40.01509596	     33.41055927	     84.41575557	      0.00000000	      0.00000000
      7.29000000	     11.18089964	     -4.21146356	     -8.13659098	     -0.22353305	      0.89790009	     -1.02387452	     57.46116154	      4.34630190	     -3.96090047	     23.82894403	      0.41589353	    -10.03333915	      0.00000000	      0.00000000	     22.23726862	     -4.75537862	    -12.26138866	     78.07058932	      1.36258883	     35.19099564	      0.00000000	      0.00000000	    -19.84278213	     -1.74645101	      5.27547875	     89.92239764	     -6.12325649	     32.56606564	     33.77343523	     85.35438659	      0.00000000	      0.00000000	     89.92887330	    -12.11849319	     39.99744724	     33.43317116	     84.41416744	      0.00000000	      0.00000000
      7.29500000	     11.05246831	     -4.22067831	     -8.05477134	     -0.22353981	      0.89897205	     -1.02386540	     57.45652529	      4.30812205	     -3.93999163	     23.80009134	      0.41538996	    -10.10704283	      0.00000000	      0.00000000	     22.21765861	     -4.79997241	    -12.28879072	     77.73926297	      1.35680610	     35.12197426	      0.00000000	      0.00000000	    -19.75836289	     -1.72177622	      5.19962297	     89.92187455	     -6.13109062	     32.54229286	     33.79656917	     85.35274185	      0.00000000	      0.00000000	     89.92884004	    -12.11145493	     39.97335774	     33.46272385	     84.41785114	      0.00000000	      0.00000000
      7.30000000	     10.92526293	     -4.18872567	     -8.02907831	     -0.22371119	      0.89993843	     -1.02398281	     57.45267373	      4.26296457	     -3.93520239	     23.75361778	      0.41457884	    -10.18946198	      0.00000000	      0.00000000	     22.25894747	     -4.74343012	    -12.29015234	     77.46261512	      1.35197768	     35.04285742	      0.00000000	      0.00000000	    -19.67377439	     -1.74331941	      5.15012107	     89.92227693	     -6.12910845	     32.49399455	     33.84749860	     85.34898674	      0.00000000	      0.00000000	     89.92874313	    -12.10157460	     39.93920022	     33.48110717	     84.42229116	      0.00000000	      0.00000000
      7.30500000	     10.81490576	     -4.18231513	     -7.95354801	     -0.22382615	      0.90090993	     -1.02399067	     57.44435607	      4.22545461	     -3.90136352	     23.72346344	      0.41405255	    -10.24064718	      0.00000000	      0.00000000	     22.30741780	     -4.72082608	    -12.23692360	     77.25846470	      1.34841458	     35.05517870	      0.00000000	      0.00000000	    -19.60551842	     -1.73881977	      5.07428736	     89.92222215	     -6.10928312	     32.47002253	     33.86430795	     85.34729380	      0.00000000	      0.00000000	     89.92879710	    -12.08672708	     39.92725324	     33.48548193	     84.42953804	      0.00000000	      0.00000000
      7.31000000	     10.74425213	     -4.14505228	     -7.91205611	     -0.22392074	      0.90231111	     -1.02391247	     57.36019333	      4.17206096	     -3.86716483	     23.71702965	      0.41394026	    -10.31436876	      0.00000000	      0.00000000	     22.22058055	     -4.70175689	    -12.28507966	     76.88167501	      1.34183836	     34.89105636	      0.00000000	      0.00000000	    -19.57875598	     -1.78912043	      5.01952842	     89.92186103	     -6.08417168	     32.46757719	     33.88503776	     85.34804690	      0.00000000	      0.00000000	     89.92859629	    -12.07806508	     39.91441864	     33.49486816	     84.43614555	      0.00000000	      0.00000000
      7.31500000	     10.66638662	     -4.15353242	     -7.90425424	     -0.22397097	      0.90323801	     -1.02380499	     57.31836827	      4.18451703	     -3.86411117	     23.72640381	      0.41410387	    -10.31384154	      0.00000000	      0.00000000	     22.25331152	     -4.72224920	    -12.28515961	     76.80512069	      1.34050224	     34.86972896	      0.00000000	      0.00000000	    -19.54433137	     -1.79736297	      5.00441716	     89.92210146	     -6.08635951	     32.43917464	     33.91687853	     85.34431907	      0.00000000	      0.00000000	     89.92878439	    -12.07421704	     39.89582416	     33.51484672	     84.43459139	      0.00000000	      0.00000000
      7.32000000	     10.50369207	     -4.19413257	     -7.84214204	     -0.22403970	      0.90437279	     -1.02375368	     57.32946518	      4.18619719	     -3.85277482	     23.69844643	      0.41361592	    -10.30806397	      0.00000000	      0.00000000	     22.27043062	     -4.78325873	    -12.27403134	     76.43261553	      1.33400080	     34.73676738	      0.00000000	      0.00000000	    -19.42814342	     -1.74581857	      4.96365257	     89.92171068	     -6.09108973	     32.42511141	     33.91532278	     85.34408043	      0.00000000	      0.00000000	     89.92869726	    -12.06310125	     39.87563550	     33.54521192	     84.43710410	      0.00000000	      0.00000000
      7.32500000	     10.43522317	     -4.23416783	     -7.79061856	     -0.22405526	      0.90566763	     -1.02357479	     57.24737389	      4.19707675	     -3.84494324	     23.70700696	      0.41376533	    -10.32832049	      0.00000000	      0.00000000	     22.20150155	     -4.83808655	    -12.26205588	     76.14298705	      1.32894583	     34.60901105	      0.00000000	      0.00000000	    -19.39554052	     -1.71152730	      4.91366789	     89.92158623	     -6.05142176	     32.44274093	     33.87736822	     85.35047188	      0.00000000	      0.00000000	     89.92849922	    -12.06724075	     39.88915036	     33.53609472	     84.44587342	      0.00000000	      0.00000000
